<?xml version="1.0" standalone="no"?>
<!DOCTYPE svg PUBLIC "-//W3C//DTD SVG 20010904//EN"
 "http://www.w3.org/TR/2001/REC-SVG-20010904/DTD/svg10.dtd">
<svg version="1.0" xmlns="http://www.w3.org/2000/svg"
 width="512.000000pt" height="512.000000pt" viewBox="0 0 512.000000 512.000000"
 preserveAspectRatio="xMidYMid meet">
<metadata>
Created by potrace 1.14, written by Peter Selinger 2001-2017
</metadata>
<g transform="translate(0.000000,512.000000) scale(0.100000,-0.100000)"
fill="#000000" stroke="none">
<path d="M0 2560 l0 -2560 2560 0 2560 0 0 2560 0 2560 -2560 0 -2560 0 0
-2560z m2655 1879 c8 -8 70 -136 138 -284 68 -149 215 -468 327 -710 183 -398
458 -998 751 -1638 60 -130 109 -242 109 -247 0 -6 -175 -10 -492 -10 -521 0
-683 -7 -918 -41 -141 -20 -354 -66 -435 -94 -141 -48 -317 -128 -360 -163
-13 -11 -11 -7 4 11 24 26 19 33 -13 21 -9 -3 -13 -11 -9 -18 3 -6 2 -7 -2 -3
-11 10 -16 39 -5 32 4 -3 22 0 39 6 22 8 30 16 27 26 -3 8 -6 19 -6 24 0 5
-13 9 -29 9 -17 0 -32 4 -36 9 -3 6 -8 53 -12 105 -5 84 -8 96 -25 96 -14 0
-18 8 -18 35 0 19 -4 35 -10 35 -5 0 -10 14 -10 31 0 17 -6 37 -14 45 -8 8
-12 23 -9 35 5 19 3 21 -15 17 -12 -4 -25 -2 -28 3 -9 15 -22 10 -20 -7 0 -9
-6 -19 -14 -21 -13 -4 -13 -3 0 6 8 5 11 13 7 17 -3 4 -12 3 -20 -2 -7 -5 -5
-1 5 8 13 11 30 15 56 12 31 -3 33 -2 12 5 -16 6 -19 9 -8 10 9 1 18 6 20 12
2 5 11 7 22 3 14 -5 15 -9 4 -15 -9 -6 -4 -9 15 -9 24 0 26 2 15 19 -7 11 -18
17 -27 14 -12 -5 -13 -3 -5 7 7 6 23 13 37 13 14 1 24 4 21 6 -2 2 13 13 33
23 29 16 37 17 44 6 8 -12 13 -5 10 14 -1 9 137 61 275 102 213 63 468 108
719 126 83 6 160 15 171 21 24 12 44 49 44 80 0 10 -63 155 -141 322 -77 166
-161 347 -186 402 -66 143 -105 175 -172 141 -23 -12 -50 -64 -161 -308 -169
-373 -196 -425 -219 -438 -12 -6 -119 -10 -279 -10 l-259 0 -27 26 c-16 17
-26 38 -26 57 0 18 165 390 426 961 519 1132 483 1058 514 1074 33 17 145 11
165 -9z m-1105 -2703 c0 -2 -8 -10 -17 -17 -16 -13 -17 -12 -4 4 13 16 21 21
21 13z m50 -21 c7 -8 8 -15 2 -15 -5 0 -15 7 -22 15 -7 8 -8 15 -2 15 5 0 15
-7 22 -15z m2543 -500 c37 -80 67 -158 67 -172 0 -15 -10 -37 -22 -50 -21 -23
-22 -23 -296 -23 l-275 0 -31 33 c-17 19 -49 74 -70 123 -22 49 -51 114 -66
144 -14 31 -29 63 -33 73 -6 16 17 17 326 17 l333 0 67 -145z m-2397 16 c-6
-9 -46 -22 -46 -15 0 3 10 9 23 14 29 11 29 11 23 1z"/>
<path d="M1720 1760 c-8 -5 -24 -10 -36 -10 -11 0 -21 -6 -21 -14 0 -16 53
-14 70 3 15 15 4 32 -13 21z"/>
<path d="M1743 1535 c0 -22 2 -30 4 -17 2 12 2 30 0 40 -3 9 -5 -1 -4 -23z"/>
<path d="M1831 1334 c11 -14 10 -18 -6 -30 -10 -8 -14 -14 -8 -14 5 0 17 8 26
18 13 14 14 21 5 30 -18 18 -32 14 -17 -4z"/>
</g>
</svg>
